<?xml version="1.0" encoding="UTF-8" standalone="no"?>
<!-- Created with Inkscape (http://www.inkscape.org/) -->

<svg
   version="1.1"
   id="svg1"
   width="2829.3333"
   height="2829.3333"
   viewBox="0 0 2829.3333 2829.3333"
   sodipodi:docname="136c6894-fdb8-4c5f-8c01-88c27d12fde2.eps"
   xmlns:inkscape="http://www.inkscape.org/namespaces/inkscape"
   xmlns:sodipodi="http://sodipodi.sourceforge.net/DTD/sodipodi-0.dtd"
   xmlns="http://www.w3.org/2000/svg"
   xmlns:svg="http://www.w3.org/2000/svg">
  <defs
     id="defs1" />
  <sodipodi:namedview
     id="namedview1"
     pagecolor="#ffffff"
     bordercolor="#000000"
     borderopacity="0.25"
     inkscape:showpageshadow="2"
     inkscape:pageopacity="0.0"
     inkscape:pagecheckerboard="0"
     inkscape:deskcolor="#d1d1d1">
    <inkscape:page
       x="0"
       y="0"
       inkscape:label="1"
       id="page1"
       width="2829.3333"
       height="2829.3333"
       margin="0"
       bleed="0" />
  </sodipodi:namedview>
  <g
     id="g1"
     inkscape:groupmode="layer"
     inkscape:label="1">
    <g
       id="group-R5">
      <path
         id="path2"
         d="m 15273.6,2120.2 -1.4,-1.2 c -85.3,-73.3 -206.1,-102.7 -315.4,-76.8 -16.8,4 -27.2,20.9 -23.2,37.7 3.4,14.4 16.3,24.1 30.4,24.1 2.4,0 4.9,-0.2 7.2,-0.8 90.3,-21.4 189.8,2.8 260.2,63.3 l 1.2,1.1 c 13.1,11.2 32.9,9.7 44.1,-3.2 11.3,-13 9.9,-32.8 -3.1,-44.2 z m -572.7,95.5 c -17,3.1 -28.2,19.5 -25,36.5 1.5,8.2 6.1,15.3 13,20.1 6.9,4.7 15.1,6.5 23.5,4.9 159.5,-29.6 334,8.5 466.7,102.1 6.8,4.8 15.2,6.6 23.3,5.3 8.3,-1.5 15.5,-6 20.3,-12.8 9.3,-13.3 7.2,-31.2 -4.9,-41.6 l -2.7,-2.1 c -148.3,-104.5 -335.5,-145.6 -514.2,-112.4 z m 824.2,-53.2 c -31.9,36.6 -64,73 -96.2,109.6 -71.2,80.8 -144.8,164.4 -215.2,248.6 -1.9,2.3 -5.3,2.9 -7.9,1.4 -97.6,-56.2 -198.3,-96.5 -299.1,-119.8 -147.8,-34 -295.8,-19.2 -416.8,41.7 l -2,2.3 c -51.1,59.5 -104,120.9 -156.7,180.8 -5.9,6.7 -14.8,15 -24.3,23.8 -19.3,18 -43.4,40.5 -48.1,55.5 0,0.1 0,0.1 0,0.1 -1,3.2 -4.2,5 -7.8,4.1 -3.3,-1 -5.1,-4.5 -4.1,-7.8 14.3,-46.3 34.4,-87.2 61.5,-125.2 64,-89.5 139.1,-174.3 211.7,-256.2 27,-30.4 53.8,-60.7 80,-91.1 23.3,-27 45.9,-54.9 69.9,-84.4 85.3,-105.4 173.5,-214.3 291,-277.9 81.2,-44 173.7,-66 272.8,-66 98.2,0 203,21.7 309.4,65 55.1,22.4 111.2,50.4 166.6,83.3 1.6,1 2.7,2.7 3,4.6 0.2,1.9 -0.4,3.8 -1.7,5.2 -58.7,60 -119.6,126.3 -186,202.4"
         style="fill:#bd1e26;fill-opacity:1;fill-rule:nonzero;stroke:none"
         transform="matrix(0.13333333,0,0,-0.13333333,0,2829.3333)" />
      <path
         id="path3"
         d="m 17436.6,2351.9 c -26.3,-22.6 -54.9,-42.2 -85.2,-58.2 -7.4,-3.9 -16,-4.7 -23.8,-2.2 -8,2.4 -14.5,7.8 -18.4,15.3 -4,7.4 -4.8,15.8 -2.3,23.8 2.5,8 7.9,14.5 15.3,18.5 138,73 228.2,226.9 224.6,383.1 -0.4,17.1 13.3,31.5 30.6,32 0.3,0 0.5,0 0.7,0 17,0 30.9,-13.6 31.3,-30.6 3.3,-143.2 -61.3,-285.8 -172.8,-381.7 z m -199.1,95.1 c -166.1,-113 -392.9,-134.9 -577.6,-55.6 -15.9,6.8 -23.3,25.3 -16.5,41.1 3.3,7.7 9.3,13.6 17.1,16.7 3.8,1.5 7.7,2.3 11.7,2.3 4.2,0 8.4,-0.8 12.4,-2.5 165.4,-71.1 368.7,-51.5 517.7,49.8 148.9,101.3 241.9,283.1 236.8,463.1 -0.5,17.2 13.2,31.7 30.4,32.2 0.3,0 0.5,0 0.8,0 16.9,0 30.9,-13.5 31.4,-30.4 5,-177.3 -76.8,-360.4 -213.5,-477.9 -16.5,-14.1 -33.5,-27.2 -50.7,-38.8 z m -933.1,282.4 -5.1,-3.7 c -14.8,-8.6 -34,-3.7 -42.8,11.2 -85.2,145.2 -128.7,317.7 -122.6,485.8 0.7,17.2 15.9,31.1 32.5,30.1 8.4,-0.3 16.1,-3.9 21.8,-10 5.7,-6.1 8.7,-14.1 8.3,-22.5 -5.7,-156.2 34.8,-316.7 114,-451.7 7.7,-13.1 4.9,-29.7 -6.1,-39.2 z m 1471.1,342.5 c -9.8,36.9 -21.6,76.5 -37.1,124.5 -0.7,2 -2.3,3.5 -4.3,4.1 -2,0.5 -4.2,0 -5.8,-1.3 -130.9,-113.8 -296.8,-185.2 -455.3,-195.8 -2.3,-0.1 -4.4,-1.6 -5.3,-3.8 -97.9,-237.1 -312.1,-404.9 -559.1,-437.9 -53.1,-7.2 -108,-6.6 -163.2,1.8 -5.3,116.1 24.7,224.8 86.9,314.6 7.6,10.8 -64,86.7 -71,93.9 -62,73.6 -124,146 -171.2,200.9 -56.8,65.9 -115.5,134.2 -173.9,200.6 -2.2,2.5 -9.3,10.2 -18.4,20 -17.6,19.1 -50.1,54.2 -54.3,60 -0.4,1 -1.1,2 -2.2,2.7 -2.8,1.9 -6.7,1.3 -8.6,-1.6 v 0 c -0.1,0 -0.1,0 -0.1,0 -38.9,-56.1 -65.6,-119.3 -79.5,-187.8 -21.9,-108.4 -10.9,-224.2 31.9,-334.8 22.6,-58.5 56.5,-116.3 106.6,-181.9 l 3.7,-5 c 1.1,-1.4 2.2,-2.9 3.2,-4.3 0.6,-5.5 12.3,-18.8 58.6,-71.9 l 33.8,-39.9 c 102.7,-121.3 203.5,-240 308.3,-358.3 59.8,-71.4 76.2,-90.6 83.1,-94.1 1.5,-1.6 2.9,-3.3 4.4,-4.9 37.5,-40.7 70.8,-71.1 104.5,-95.4 93.9,-67.8 204.7,-102.5 322.4,-102.5 53.5,0 108.5,7.2 163.9,21.8 210,55.2 394.7,207.3 482,396.8 82.6,179.4 87.9,408.1 16,679.5"
         style="fill:#fbc04d;fill-opacity:1;fill-rule:nonzero;stroke:none"
         transform="matrix(0.13333333,0,0,-0.13333333,0,2829.3333)" />
      <path
         id="path4"
         d="m 15932.5,2413.3 c -19.3,-16.6 -40.9,-29 -64.1,-36.7 -16.3,-5.5 -34.1,3.4 -39.7,19.7 -2.6,8 -2,16.5 1.7,23.9 3.8,7.5 10.2,13.1 18.2,15.7 52.6,17.6 92.8,72.8 93.3,128.5 0,8.3 3.3,16.1 9.3,22 5.9,5.8 13.7,9 21.9,9 0.1,0 0.2,0 0.3,0 8.4,-0.1 16.3,-3.4 22.1,-9.4 5.9,-6 9.1,-13.8 9,-22.2 -0.5,-55.9 -27.5,-112.1 -72,-150.5 z m -226,15.6 c -22.9,-19.7 -47.2,-37.4 -72.2,-52.6 -15,-9.1 -34.1,-4.3 -43,10.4 -9,14.6 -4.3,33.9 10.4,43 119.2,72.6 206.4,197.7 233.5,334.7 1.6,8.2 6.3,15.2 13.2,19.9 5.3,3.5 11.3,5.3 17.5,5.3 2,0 4,-0.2 6.1,-0.6 8.2,-1.6 15.2,-6.3 19.9,-13.2 4.7,-7 6.4,-15.3 4.7,-23.5 -24.5,-124.3 -92,-239.1 -190.1,-323.4 z m -198.2,63 c -15.9,-13.7 -32.1,-26.7 -47.8,-38.7 -13.8,-10.5 -33.4,-7.9 -43.9,5.9 -10.7,14 -5.7,34.8 5.9,43.8 252.4,192.4 412,508.9 416.4,826.3 0.1,8.3 3.5,16.1 9.5,22 5.9,5.7 13.6,8.8 21.7,8.8 0.2,0 0.3,0 0.5,0 8.4,-0.1 16.2,-3.5 22,-9.4 5.9,-6 9,-14 8.9,-22.3 -4.4,-315.9 -151.3,-628.5 -393.2,-836.4 z m 694.5,262.1 c -0.1,1.3 -0.5,2.6 -1.3,3.6 -50,65.5 -82.4,120.7 -104.9,178.9 -41.9,108.4 -52.8,221.7 -31.3,327.8 0.3,1.3 0.2,2.6 -0.4,3.8 -19.4,42.1 -40.2,84.1 -61.9,124.8 -55.4,104.3 -119.9,201.9 -191.6,290.3 -9,11.2 -18.2,22.5 -27.4,33.7 l -15.9,19.5 c -0.1,0.3 -0.1,0.6 -0.2,0.8 -10.7,30.5 -381.6,463.3 -418.4,488.7 l -16.6,18 c -25.4,27.4 -51.5,55.7 -78.1,82.6 -7.6,7.9 -15.6,15.4 -23.6,22.8 l -8.2,7.7 c -1.6,1.6 -3.8,2.1 -5.9,1.5 -2.1,-0.5 -3.8,-2.2 -4.4,-4.2 -26.8,-90.2 -48.7,-170.5 -66.9,-245.6 -0.8,-3.1 0.9,-6.2 3.9,-7.3 146.2,-52.9 269.4,-112.9 376.7,-183.3 109.7,-207 225.6,-514.5 156.9,-806.3 -48.3,-205.1 -189.7,-396.9 -398.1,-540.1 -2.5,-1.7 -3.4,-5 -2.1,-7.7 36,-77.5 76.6,-153.6 120.6,-226.2 0.3,-0.6 0.8,-1.1 1.3,-1.5 154.4,-130.3 306.5,-224.2 452,-279.3 0.7,-0.3 1.5,-0.4 2.2,-0.4 1.4,0 2.8,0.5 4,1.4 227.3,188.9 347.9,436.1 339.6,696"
         style="fill:#bd1e26;fill-opacity:1;fill-rule:nonzero;stroke:none"
         transform="matrix(0.13333333,0,0,-0.13333333,0,2829.3333)" />
      <path
         id="path5"
         d="m 15968.7,4777.1 c 1.1,16.6 14.9,29.4 31.3,29.4 0.6,0 1.3,0 1.9,0 301.1,-18.9 588.1,-142.8 808.3,-348.9 6.2,-5.7 9.7,-13.5 9.9,-21.8 0.3,-8.4 -2.7,-16.4 -8.2,-22.2 l -2.7,-2.6 c -12.2,-10.4 -30.2,-10 -41.8,0.9 -206.5,193.3 -486.9,314.4 -769.4,332.1 -17.2,1 -30.4,15.9 -29.3,33.1 z m 182,-356.8 c 205,-20.9 389.3,-42.8 567.4,-99.1 123.1,-38.9 241.4,-98 351.7,-175.5 59.9,-109.3 110.5,-221.5 150.2,-333.8 10,-28.1 19.8,-58 30.2,-91.4 0.7,-2 2.2,-3.5 4.3,-4.1 0.5,-0.2 1.1,-0.2 1.7,-0.2 1.4,0 2.9,0.5 4,1.4 l 3.5,2.9 c 1.6,1.3 3.2,2.6 4.7,4 43.6,38.6 83.6,83 118.9,131.8 1.6,2.3 1.5,5.3 -0.1,7.5 -41.8,55.1 -88,112.6 -141.2,175.7 -51,62.7 -302.1,360.9 -340.3,387.4 -96.4,109.1 -180.9,197.2 -280.5,272.6 -176,133.2 -388.9,219.4 -651.1,263.4 -4,0.7 -8,1.3 -12,1.9 l -8.8,1.3 c -1.7,0.4 -3.3,-0.1 -4.7,-1.1 -1.3,-1 -2.2,-2.5 -2.4,-4.1 -6.8,-45.2 -14.1,-90.2 -21.4,-135.2 -12.9,-79.3 -26.1,-161.3 -35.9,-241.5 -5.6,-45.3 -9.8,-86.8 -12.9,-127 -0.2,-3.3 2.2,-6.2 5.5,-6.6 85.3,-11.5 172.2,-20.4 256.3,-29 l 12.9,-1.3"
         style="fill:#fbc04d;fill-opacity:1;fill-rule:nonzero;stroke:none"
         transform="matrix(0.13333333,0,0,-0.13333333,0,2829.3333)" />
      <path
         id="path6"
         d="m 15444.7,4607.9 c -24.7,115.1 -30.7,239.1 -19,390.1 0.2,3.2 -2,6 -5.2,6.6 -3.3,0.6 -6.2,-1.4 -7.1,-4.4 -34.9,-121.7 -74.4,-244.8 -112.6,-363.7 l -4.6,-14.4 c -0.9,-2.9 0.4,-6.1 3.1,-7.5 48,-25 98.5,-47.1 149.9,-65.8 0.7,-0.2 1.4,-0.3 2.1,-0.3 1.6,0 3.1,0.5 4.3,1.6 1.7,1.6 2.4,4 1.8,6.2 -5.2,18.9 -9.3,35.8 -12.7,51.6 v 0"
         style="fill:#fbc04d;fill-opacity:1;fill-rule:nonzero;stroke:none"
         transform="matrix(0.13333333,0,0,-0.13333333,0,2829.3333)" />
      <path
         id="path7"
         d="m 17796.5,3517.3 c -18,-79.7 -62.5,-153.4 -125.1,-207.2 -11.2,-9.6 -22.9,-18.5 -34.8,-26.5 -6.9,-4.7 -15.1,-6.4 -23.5,-4.8 -8.2,1.6 -15.3,6.3 -19.9,13.2 -9.8,14.5 -6.1,33.6 8.4,43.5 67.2,45.3 116,116.6 133.8,195.7 3.3,14.5 16.4,24.4 30.6,24.4 2.3,0 4.6,-0.2 6.9,-0.8 16.8,-3.8 27.4,-20.6 23.6,-37.5 z m -304.6,-93.7 c -67,-57.6 -145.6,-99.9 -227.4,-122.5 -16.7,-4.5 -34,5.3 -38.5,21.9 -4.6,16.6 5.2,33.9 21.8,38.5 156.3,43.1 290.8,163.4 351.1,314 3.1,7.8 9,13.9 16.7,17.2 4,1.7 8.1,2.5 12.3,2.5 4,0 7.8,-0.7 11.6,-2.2 16.1,-6.4 23.9,-24.7 17.5,-40.7 -34.6,-86.5 -91.7,-165.5 -165.1,-228.7 z m -1038.8,-7 c -7.5,3.6 -13.1,10.1 -15.8,18 -2.7,7.9 -2.1,16.4 1.6,23.9 7.6,15.4 26.5,21.9 41.9,14.2 179.7,-88.8 398.7,-98.6 585.5,-26.6 187,72 342.7,226.2 416.3,412.6 6.5,16 24.9,23.8 40.7,17.6 16,-6.4 23.9,-24.6 17.6,-40.6 -46.6,-117.6 -123.6,-224.8 -222.7,-310 -69.4,-59.7 -146.6,-106.2 -229.4,-138.1 -202.9,-78.2 -440.6,-67.4 -635.7,29 z m -630.1,1464.8 -1.4,-8.7 c -6.1,-37.9 -12.2,-75.8 -17.8,-113.7 -25.6,-174.7 -44.5,-378.6 10.2,-565.2 3.4,-11.8 -0.4,-24.6 -9.6,-32.6 -3.4,-2.9 -7.3,-5 -11.7,-6.2 -8,-2.4 -16.4,-1.5 -23.8,2.5 -7.3,4.1 -12.7,10.7 -15,18.7 -58.1,198.1 -38.6,410.4 -12,591.9 6.1,41.1 12.6,82.2 19.4,123.6 23.6,147.5 48.1,300 44.1,450 -5.8,214.2 -74.4,395.1 -193.3,509.6 -12.4,11.9 -12.8,31.8 -0.9,44.3 5.7,6 13.4,9.5 21.7,9.7 0.2,0 0.5,0 0.7,0 8.2,0 15.9,-3.2 21.9,-8.9 130.8,-126 206.3,-322.4 212.5,-553 4.2,-156.4 -20.8,-311.8 -45,-462 z m -177.3,-49 c -6.8,-5.9 -15.9,-8.6 -24.6,-7.3 -8.3,1.1 -15.6,5.3 -20.7,12 -5,6.6 -7.2,14.9 -6.1,23.2 l 65.4,486.9 c 2.1,15.7 15.6,27.2 31.1,27.2 1.3,0 2.7,-0.1 4.1,-0.3 17.1,-2.3 29.1,-18.1 26.8,-35.2 l -65.4,-487 c -1,-7.5 -4.8,-14.5 -10.6,-19.5 z m 1677.9,-335.6 -3.1,-3 c -11.9,-10.2 -29.5,-10 -41.2,0.4 -51,45.6 -120.8,70.4 -189.8,70.4 -29.2,0 -58.3,-4.5 -85.8,-13.7 -16.5,-5.5 -34.2,3.4 -39.7,19.7 -5.4,16.3 3.4,34.1 19.7,39.6 114.8,38.5 247.1,11.3 337.3,-69.3 6.2,-5.6 9.9,-13.2 10.4,-21.6 0.5,-8.3 -2.3,-16.3 -7.8,-22.5 z m 660.4,-768.5 c -5.9,83.4 -35.9,163.8 -89.1,239.5 0.4,0.3 0.7,0.6 1.1,0.9 6.3,6 8,7.6 -198.6,240.3 -32,36.9 -64.4,73.6 -96.6,110.3 -28.1,31.8 -56.1,63.6 -83.9,95.5 -11.3,13 -22.5,26.2 -33.7,39.4 -45.4,53.4 -92.3,108.5 -147.5,152.5 -160.1,127.7 -373.3,154.9 -557,71.1 -0.8,-0.1 -1.5,-0.6 -2.4,-1.2 -2.7,-1.8 -3.5,-5.3 -2,-8.2 0.3,-0.5 0.6,-0.9 1,-1.3 3.3,-3.8 55.6,-67.7 64.9,-79.3 0.2,-0.3 0.4,-0.6 0.7,-0.9 47.2,-56.1 99,-116.9 162.9,-191.2 l 3.6,-4.1 c 52.5,-61.1 106.8,-124.2 161,-185.7 1.5,-1.7 5,-6 9.6,-11.6 58.6,-71.4 61.4,-69.9 67.3,-67.2 80.1,36.8 169.2,52.2 257.6,44.8 -12.2,-104.7 -55.6,-211.1 -125.8,-308.2 -34.7,-48.1 -74,-91.8 -116.9,-129.9 -1.5,-1.3 -2.9,-2.4 -4.4,-3.6 l -3.7,-3.1 c -121.6,-105.2 -263.7,-168.6 -410.9,-183.5 -158.3,-15.9 -334.6,19.2 -523.2,104.7 -117.1,53 -229,118.2 -332.7,193.6 -41.1,88.1 -69.8,178 -85.4,267.3 -17.7,101.7 -21.4,215.2 -11.4,347.1 3,40 7.2,81.3 12.7,126.4 9.8,79.9 23.1,161.8 35.9,241 7.3,45 14.7,90.2 21.4,135.3 26.6,177.7 47.2,368.3 17.3,558.7 -26.3,168.1 -98.9,329.1 -215.7,478.6 -76.5,98 -160.8,199.1 -273.3,327.9 -1.9,2.2 -5,2.8 -7.5,1.4 -2.6,-1.3 -3.9,-4.2 -3.2,-7 48.8,-198.5 70.3,-401.1 64.1,-602.2 -6.6,-212.6 -45.7,-433.4 -127,-717.4 -11.7,-152.3 -5.6,-277.4 19.3,-393.7 3.4,-16 7.6,-33.1 12.9,-52.2 71.3,-261.3 239.2,-456.6 417,-663.3 l 47.9,-56 c 68,-79.3 132.2,-154.2 199.5,-228.1 23.2,-27.2 31.4,-36.8 35.8,-39.1 160,-171.1 300.3,-287.5 454.2,-377.1 232.1,-135.1 437.5,-200.9 627.2,-200.9 6.3,0 12.5,0.1 18.7,0.2 5.9,0.1 11.8,0.7 17.6,1.3 3.6,0.3 7.1,0.6 10.6,0.9 161.1,10.7 329.7,83.2 462.6,198.8 170.9,148.6 261,344.9 247.5,538.5"
         style="fill:#3dc1f3;fill-opacity:1;fill-rule:nonzero;stroke:none"
         transform="matrix(0.13333333,0,0,-0.13333333,0,2829.3333)" />
      <path
         id="path8"
         d="m 14492.2,5605.5 -8.2,-5.4 c -15.8,-7 -34.4,0 -41.4,15.7 -136,300.4 -237.9,616.6 -302.9,939.9 -3.4,16.9 7.6,33.4 24.5,36.8 17,3.5 33.5,-7.6 37,-24.5 64,-318.6 164.4,-630.3 298.4,-926.4 5.7,-12.6 2.4,-27.7 -7.4,-36.1 z m 233.9,-354.4 c -135.5,265.2 -212.1,557.9 -274.6,834.6 l -15.4,68.3 c -49.2,218 -100,443.5 -162.6,661.6 -0.5,1.8 -1.8,3.3 -3.5,4 -148,64.2 -275.8,126.2 -390.4,189.5 -2.2,1.1 -4.8,1 -6.8,-0.5 -2,-1.5 -2.9,-4 -2.4,-6.4 13.1,-57.5 25.9,-115.1 38.5,-172.7 56.3,-255.2 114.5,-519.1 207.4,-768.5 75.5,-202.8 173.4,-382.6 291,-534.5 122.8,-158.7 255.4,-311.2 369,-439.4 1.2,-1.3 2.9,-2.1 4.7,-2.1 0.4,0 0.9,0.1 1.3,0.2 2.2,0.4 4,2 4.6,4.2 10.7,33.8 21.5,67.7 32.3,101.6 0.9,2.9 -0.4,6 -3,7.4 -30.4,16.1 -60.7,33.8 -90.1,52.7"
         style="fill:#fbc04d;fill-opacity:1;fill-rule:nonzero;stroke:none"
         transform="matrix(0.13333333,0,0,-0.13333333,0,2829.3333)" />
      <path
         id="path9"
         d="m 13896.6,7372.4 c -4.7,-4 -10.2,-6.5 -16.2,-7.3 -17.4,-2.5 -32.9,9.7 -35.2,26.8 -10.9,78.7 -40.3,155 -85.4,220.8 -9.5,14 -5.8,33.5 8.2,43.5 6.9,4.8 15.2,6.5 23.5,5 8.2,-1.6 15.3,-6.2 20,-13.1 50.4,-73.7 83.5,-159.3 95.7,-247.7 1.4,-10.6 -2.6,-21.1 -10.6,-28 z m 232.9,-159.8 c 0.8,-0.3 1.5,-0.5 2.3,-0.5 1.6,0 3.2,0.7 4.4,1.9 1.8,1.7 2.3,4.3 1.4,6.7 -1.1,2.9 -2.3,5.8 -3.3,8.7 -1.2,3.5 -2.5,6.9 -3.9,10.3 -74.4,186.5 -160.1,357.3 -254.8,507.6 -1,1.6 -2.7,2.7 -4.6,2.9 -69.2,7.9 -142.4,13.4 -217.5,16.3 -1.8,0 -4.1,-0.9 -5.3,-2.6 -1.2,-1.7 -1.5,-3.9 -0.7,-5.9 46.1,-119.7 89.3,-250.2 132,-399 0.5,-1.8 1.8,-3.2 3.5,-4 68.4,-29.9 140.9,-60.2 228.1,-95.5 39.3,-15.9 78.8,-31.4 118.4,-46.9"
         style="fill:#fbc04d;fill-opacity:1;fill-rule:nonzero;stroke:none"
         transform="matrix(0.13333333,0,0,-0.13333333,0,2829.3333)" />
      <path
         id="path10"
         d="m 13641.9,4730.1 c -7.5,3.8 -13,10.3 -15.5,18.3 -2.5,8 -1.8,16.4 2,23.9 5.6,10.7 16.6,16.9 28,16.9 4.8,0 9.7,-1.1 14.2,-3.5 268.3,-138.3 551.9,-248.3 843,-326.7 8,-2.1 14.8,-7.3 19,-14.5 4.1,-7.3 5.2,-15.7 3,-23.8 -1.6,-6.1 -5,-11.5 -9.7,-15.6 0,0 0,0 -0.1,0 -7.8,-6.8 -18.5,-9.2 -28.6,-6.5 -295.4,79.6 -583.2,191.1 -855.3,331.5 z M 12760.2,6436 c -5,-4.4 -11.5,-7 -18.2,-7.5 -0.8,0 -1.4,0 -2.2,0 -16.3,0 -30,12.7 -31.2,29.2 l -39.7,582.3 c -0.5,8.3 2.2,16.4 7.7,22.7 5.4,6.3 13.1,10.1 21.4,10.6 0.8,0.1 1.5,0.1 2.2,0.1 7.6,0 14.8,-2.7 20.5,-7.7 6.4,-5.5 10.2,-13.1 10.7,-21.5 l 39.7,-582.3 c 0.7,-9.9 -3.3,-19.4 -10.9,-25.9 z m -13.9,-633.4 c -3.2,-2.6 -6.6,-4.6 -10.3,-5.8 -7.8,-2.7 -16.4,-2.2 -23.9,1.4 -7.5,3.7 -13.2,10.1 -15.9,18 -126.5,366.4 -144.7,768.4 -162.3,1157.3 -8.7,191.8 -16.8,373 -37.7,548.4 -2,17.2 10.3,32.9 27.4,34.9 1.3,0.2 2.5,0.2 3.8,0.2 7,0 13.7,-2.3 19.2,-6.7 6.6,-5.2 10.8,-12.6 11.8,-20.9 20.9,-175.9 29.2,-358.1 38,-551 l 0.1,-2.1 c 17.4,-384.5 35.4,-782 158.9,-1139.7 4.2,-12.3 0.6,-25.6 -9.1,-34 z M 14596,4260.4 c 0.6,-0.1 1.1,-0.2 1.6,-0.2 1.3,0 2.5,0.4 3.6,1.2 1.5,1 2.4,2.7 2.6,4.5 11.7,130.8 33.6,264.4 66.8,408.6 0.7,3.1 -0.9,6.2 -3.9,7.3 -152.9,55.6 -312.9,97.8 -477,139.7 l -14.6,3.7 c -211.1,53.8 -429.4,109.5 -632.3,198.1 -155.3,67.8 -302.1,153.8 -436.3,255.7 -112,229.9 -169.4,507.5 -180.7,873.4 -10.3,334.5 -26.9,774.9 -64.2,1214.9 l -6.6,78.4 c -8.8,105.8 -17.8,215.1 -30.2,322.3 -0.3,2.4 -2,4.4 -4.2,5.2 -126.1,41.6 -260.8,118.5 -411.7,234.9 -12,9.3 -23.8,19.3 -35.1,28.9 l -14.2,12 c -1.9,1.7 -4.8,1.9 -6.9,0.8 -2.3,-1.2 -3.6,-3.6 -3.4,-6.1 36.5,-410.7 60.8,-839.8 74.3,-1311.8 7.9,-278.9 37.2,-486.8 94.8,-674.1 90.6,-294.5 278.2,-511.8 476.8,-741.8 15,-17.4 30.2,-35 45.3,-52.5 l 10.6,-12.4 c 41.4,-48.2 82.6,-96.1 123.9,-143.5 101.6,-119.6 118,-138.8 124.3,-138.8 0.3,0 0.5,0 0.7,0 154.8,-165.2 290.1,-280.6 435.7,-372.3 181.9,-114.6 392.8,-205.5 644.6,-278.1 72.4,-20.8 146.5,-40.2 215.7,-58"
         style="fill:#bd1e26;fill-opacity:1;fill-rule:nonzero;stroke:none"
         transform="matrix(0.13333333,0,0,-0.13333333,0,2829.3333)" />
      <path
         id="path11"
         d="m 14917.3,6725.9 -7.9,-9.9 c -9.6,-8.4 -23.7,-10 -35.1,-3.9 -431.1,229.9 -880,437.4 -1333.9,616.7 -16.1,6.3 -24,24.5 -17.7,40.6 3.1,7.7 9,13.9 16.7,17.2 7.7,3.3 16.2,3.5 24,0.4 456.4,-180.3 907.4,-388.8 1340.4,-619.7 15.2,-8.1 21,-27.1 13.5,-41.4 z m 101.2,71.1 c -244.1,178.3 -531.8,290.1 -810,398.2 -24.9,9.6 -49.7,19.3 -74.4,29 -39.6,15.5 -79.1,31 -118.3,46.8 -87.1,35.3 -159.5,65.6 -227.8,95.5 -285.4,124.6 -503,245.3 -685.1,379.8 -1.2,0.9 -2.8,1.5 -4.3,1.2 -5.3,-0.5 -10.6,-1 -15.8,-1.4 -6.7,-0.6 -13.3,-1.2 -20,-1.8 -11.2,-1.2 -22.1,-2.2 -33,-3.1 -2.3,-0.1 -4.4,-1.6 -5.3,-3.8 -0.9,-2.2 -0.4,-4.7 1.1,-6.5 63,-72.6 129.7,-148.5 204,-231.9 120.7,-135.6 250.1,-249.8 395.5,-349.1 75.7,-51.8 157,-101.4 248.4,-151.8 115.1,-63.4 243.1,-125.5 391.5,-189.9 97.7,-42.4 204.4,-86.2 335.8,-137.8 l 59.9,-23.6 c 128.9,-50.4 262.2,-102.6 390.2,-160.8 0.8,-0.3 1.7,-0.5 2.5,-0.5 1.3,0 2.5,0.3 3.6,1.1 1.8,1.2 2.8,3.3 2.7,5.5 -6.3,102.2 -19.4,203.5 -38.8,301.1 -0.3,1.5 -1.2,2.9 -2.4,3.8"
         style="fill:#3dc1f3;fill-opacity:1;fill-rule:nonzero;stroke:none"
         transform="matrix(0.13333333,0,0,-0.13333333,0,2829.3333)" />
      <path
         id="path12"
         d="m 12508.7,8295.7 c 31.4,0 62.9,3.1 92.5,6.4 2,0.3 3.7,1.4 4.7,3.2 1,1.8 1,3.9 0.2,5.7 -51.3,107.5 -83.6,221.8 -109.9,320.6 -0.4,1.6 -1.5,3 -3,3.8 -91.7,50.5 -175.2,110.7 -248.2,178.8 -1.8,1.7 -4.5,2.2 -6.8,1.2 -2.2,-1 -3.7,-3.2 -3.7,-5.7 0,-0.5 0,-0.9 0.1,-1.4 0.1,-0.2 0.1,-0.4 0.2,-0.6 48.8,-163.6 71.2,-329.1 86.7,-469.5 0.2,-2.3 1.9,-4.3 4,-5.2 68.6,-24.8 124.9,-36.7 177.2,-37.3 2,0 4,0 6,0"
         style="fill:#bd1e26;fill-opacity:1;fill-rule:nonzero;stroke:none"
         transform="matrix(0.13333333,0,0,-0.13333333,0,2829.3333)" />
      <path
         id="path13"
         d="m 13189.4,8588.4 -12.9,14.6 c -95.5,106.9 -203.8,228.1 -334.7,294.5 -84.3,42.7 -177,69.4 -266.7,95.2 l -9.8,2.9 c -2.5,0.7 -5.4,-0.3 -7,-2.6 -1.5,-2.2 -1.3,-5.2 0.4,-7.4 31.6,-39.2 72.6,-91.5 108.3,-148.3 61.2,-97.4 113.2,-209.1 163.4,-351.6 0.7,-1.9 2.2,-3.3 4,-3.9 45,-14.2 90.9,-27.8 135.2,-41.1 84.8,-25.2 172.4,-51.4 257,-82.1 33.8,-12.2 66.1,-27 98.7,-45 0.7,-0.4 1.6,-0.7 2.4,-0.8 37.2,-3.5 69.6,-7.1 99.2,-11 0.3,-0.1 0.5,-0.1 0.8,-0.1 2.3,0 4.4,1.3 5.5,3.3 1.2,2.3 0.9,5.1 -0.8,7 -77.2,89.5 -158.9,182.5 -243,276.4"
         style="fill:#fbc04d;fill-opacity:1;fill-rule:nonzero;stroke:none"
         transform="matrix(0.13333333,0,0,-0.13333333,0,2829.3333)" />
      <path
         id="path14"
         d="m 12123.1,9206.5 c -1.1,1.2 -2.6,1.9 -4.2,2 -32.8,2.4 -68,2 -107.5,-1 -2.7,-0.2 -5,-2.2 -5.6,-4.9 -0.6,-2.6 0.6,-5.4 3.1,-6.7 23.7,-13.3 44.8,-26 65,-39.4 39.2,-18.7 80.9,-36.7 124,-53.7 0.7,-0.3 1.5,-0.5 2.3,-0.5 2,0 3.9,1 5.1,2.7 1.7,2.3 1.5,5.5 -0.4,7.6 -27.1,31.4 -54.5,62.6 -81.8,93.9"
         style="fill:#bd1e26;fill-opacity:1;fill-rule:nonzero;stroke:none"
         transform="matrix(0.13333333,0,0,-0.13333333,0,2829.3333)" />
      <path
         id="path15"
         d="m 16635.7,1567.7 c -6.2,-5.4 -14.6,-7.9 -22.5,-7.6 -363.1,24.6 -708.9,195.7 -948.9,469.4 -11.3,12.9 -10,32.7 2.9,44.1 14.6,11.4 32.8,10.3 44.3,-2.8 229,-261.3 559.2,-424.7 905.9,-448.2 8.4,-0.5 16,-4.3 21.5,-10.6 5.5,-6.3 8.2,-14.4 7.6,-22.7 -0.5,-8.4 -4.4,-16.1 -10.8,-21.6 z m -613.1,317.7 c 7.1,15.8 25.5,22.9 41.3,16.1 93.2,-40.9 196.5,-60.7 298.1,-56.6 0.4,0 0.8,0 1.2,0 16.8,0 30.7,-13.3 31.3,-30.1 0.4,-9.6 -3.6,-18.7 -10.8,-24.9 -5.5,-4.7 -12.2,-7.3 -19.3,-7.6 -111.4,-4.1 -223.7,17.2 -325.7,61.8 -15.8,6.9 -23,25.4 -16.1,41.3 z M 14940.9,4136 v 0 c -7.4,-6.4 -17.1,-8.8 -26.6,-7 -8.1,1.6 -15.3,6.4 -19.9,13.3 -4.6,7 -6.2,15.3 -4.6,23.5 101.1,505.1 233.8,1009.3 394.5,1498.6 2.6,7.9 8.1,14.3 15.5,18.1 4.5,2.3 9.4,3.4 14.2,3.4 3.4,0 6.6,-0.5 9.8,-1.5 16.4,-5.4 25.4,-23.2 20,-39.6 -159.8,-486.4 -291.9,-988.1 -392.7,-1491.3 -1.3,-6.8 -4.9,-13 -10.2,-17.5 z m -74,-733.6 -9.5,-5.8 c -7.8,-3 -16.3,-2.8 -24,0.6 -7.6,3.3 -13.5,9.5 -16.5,17.3 -196.1,506.9 -75.1,1071.5 52.1,1506.8 28.8,98.5 59.9,197.8 90,294.3 118.4,378.9 240.8,770.7 244.4,1169.2 0.1,17.1 14.2,31 31.4,31 0.1,0 0.1,0 0.2,0 8.4,-0.1 16.2,-3.4 22,-9.4 5.9,-5.9 9.1,-13.8 9,-22.2 -3.6,-407.8 -127.5,-804.2 -247.3,-1187.8 l -2,-6.4 c -29.4,-93.8 -59.7,-190.8 -87.6,-286.2 -124.4,-425.9 -243,-977.5 -53.8,-1466.7 4.7,-12.2 1.3,-26.1 -8.4,-34.7 z m 495.9,2046.3 c 5.5,4.2 12.1,6.4 18.9,6.4 1.4,0 2.9,-0.1 4.3,-0.3 8.3,-1.2 15.6,-5.5 20.7,-12.2 5,-6.6 7.2,-14.9 6,-23.1 -19.5,-141 -55.2,-279.7 -106.3,-412.4 -2,-4.9 -5,-9.2 -8.8,-12.5 -8.8,-7.5 -20.9,-9.7 -31.7,-5.5 -16.2,6.2 -24.3,24.3 -18.1,40.4 49.5,128.3 84.1,262.4 102.9,398.6 1.2,8.2 5.4,15.5 12.1,20.6 z m -1046,2374.6 -6.2,-7.2 c -10.4,-9 -25.7,-10 -37.3,-2.6 -390.1,249.1 -851.8,380.6 -1313.8,380.6 -148.3,0 -296.5,-13.5 -442.4,-41 -8.2,-1.7 -16.5,0.1 -23.5,4.9 -6.8,4.7 -11.5,11.8 -13,20 -1.6,8.2 0.1,16.5 4.9,23.4 4.6,7 11.8,11.6 20,13.2 616.1,116.2 1272.9,-10.8 1801.5,-348.4 7,-4.5 11.9,-11.4 13.7,-19.6 1.8,-8 0.4,-16.3 -3.9,-23.3 z m -794.7,162.8 c -1.6,-6.3 -5,-11.8 -9.8,-15.9 -7.8,-6.7 -18.6,-9.2 -28.4,-6.6 -166.9,43.4 -340.7,65.2 -514.2,65.2 -113.1,0 -226,-9.3 -336.9,-27.9 -8.5,-1.3 -16.6,0.6 -23.4,5.4 -6.8,4.8 -11.3,12 -12.7,20.3 -1.3,8.3 0.6,16.5 5.4,23.3 4.9,6.9 12.1,11.4 20.3,12.8 289.7,48.5 593,35.3 877.3,-38.5 16.7,-4.3 26.7,-21.4 22.4,-38.1 z m -215.6,-115.4 c -6.3,-5.4 -14.1,-8 -22.6,-7.5 -124.2,8.7 -248.4,-2 -369.2,-32 -8,-1.9 -16.5,-0.7 -23.6,3.6 -7.2,4.3 -12.3,11.2 -14.3,19.3 -2,8.1 -0.7,16.5 3.6,23.6 4.3,7.2 11.2,12.3 19.3,14.3 98.7,24.4 199.4,36.7 300.7,36.7 29.2,0 58.5,-1 87.8,-3 17.3,-1.2 30.3,-16.2 29.1,-33.4 -0.6,-8.5 -4.5,-16.2 -10.8,-21.6 z m 3530.6,-6393.5 c -5.3,5.6 -58.2,70.6 -68,83.1 -0.2,0.5 -0.5,0.8 -0.8,1.2 0,0 0,0 0,0.1 -49.4,58.6 -102.5,120.9 -172.3,202 l -6.1,7.1 c -54.8,63.7 -111.4,129.5 -167.8,193.6 -1.7,2 -5.7,6.9 -11,13.4 -53.9,67 -61.8,72.6 -69.5,70 -144.1,-52.1 -305.7,-45.1 -480.2,20.9 -143.9,54.5 -294.5,147.6 -447.6,276.6 -43.5,71.9 -83.7,147.2 -119.4,224 -191.2,410.9 -255.7,857.3 -186.6,1291 12.2,76.9 28.6,157.2 50.1,245.6 18.1,74.8 40,154.9 66.8,244.9 27.4,92.3 56.3,183.1 83.4,267.6 l 4.6,14.4 c 38.2,119 77.7,242.1 112.7,364 81.4,283.9 120.7,505.7 127.3,719.3 6.3,202.2 -15.5,406 -64.5,605.6 -23.1,93.7 -50.8,182.8 -82.5,264.8 -52.3,135.8 -118,264.3 -195.1,381.9 -39.3,59.8 -85.4,121.9 -141.2,189.7 -146.2,177.6 -300.1,356.9 -470.4,548.1 -216.4,242.9 -456.7,408.6 -734.8,506.5 -132.8,46.7 -279.4,80.8 -435.7,101.5 -29.7,4 -62.3,7.6 -99.6,11.2 -120.9,11.4 -248.2,15.7 -378.5,12.9 -13.8,-0.3 -27.7,-0.9 -41.6,-1.5 l -21.4,-0.9 c -71.4,-2.7 -135.3,-6.3 -195.6,-11.2 -22.4,-1.8 -45.4,-4.5 -67.6,-7.2 l -24.5,-2.9 c -30.9,-3.5 -64,-6.9 -96.8,-6.3 -50.9,0.6 -105.9,12.2 -173.1,36.6 -16.9,6.1 -33.3,12.4 -48.7,18.7 -108.2,44.5 -216.7,106.5 -322.5,184.3 -86.6,189.4 -108.1,376.8 -64.1,557 0.5,2.1 -0.1,4.3 -1.6,5.8 -1.6,1.5 -3.8,2.2 -5.8,1.7 -54.8,-11.9 -110,7.1 -144.6,49.5 l -317.9,389.7 c -0.6,0.8 -1.4,1.4 -2.3,1.8 l -39.3,17.6 c -1.7,0.8 -4,0.7 -5.7,-0.3 -1.7,-1 -2.8,-2.8 -3,-4.8 -18.2,-187.5 30.5,-382.9 140.7,-565.1 31.2,-51.6 67.1,-102.6 109.7,-156.1 131.7,-165.3 273.8,-327 411.3,-483.4 l 45,-51.3 c 98.3,-112.1 184.3,-198 270.6,-270.4 l 14.1,-12 c 11.5,-9.7 23.3,-19.8 35.6,-29.3 152.1,-117.3 287.9,-194.8 415.4,-236.8 46.5,-15.4 88.4,-25.6 128,-31.2 32.5,-4.6 63,-3.2 86.1,-1.4 11,0.8 22,1.9 33.3,3 6.6,0.7 13.2,1.3 19.7,1.8 5.4,0.5 10.7,0.9 16,1.5 89,8.6 167.9,14.4 241,17.8 104.1,4.8 209.2,5.1 312.3,1.2 74.7,-3 147.6,-8.5 216.5,-16.3 3.8,-0.5 7.6,-0.8 11.4,-1.1 4.4,-0.4 8.9,-0.8 13.3,-1.3 346.1,-42.8 647.5,-156.5 895.8,-337.8 102.1,-186.5 175.6,-390.7 218.6,-606.9 19.3,-97 32.3,-197.7 38.5,-299.4 2.8,-45.2 4.3,-84.7 4.5,-120.9 3,-401 -120.4,-787.1 -239.6,-1160.5 l -4.8,-15.1 c -10.8,-33.9 -21.6,-67.8 -32.3,-101.7 -10.8,-34.2 -21.5,-68.5 -32,-102.8 -33.8,-110.5 -61.5,-212.8 -84.5,-312.9 -33.4,-144.8 -55.3,-279.1 -67.1,-410.4 -20.2,-224.8 -9.3,-432.3 33.3,-634.1 45.8,-217 123.3,-427.1 230.2,-624.4 83.4,-153.7 191,-306.6 349.3,-495.8 70.4,-84.3 144.1,-168 215.4,-248.9 32.1,-36.5 64.2,-73 96.1,-109.4 66.6,-76.4 127.6,-142.8 186.4,-203.1 151.6,-155.1 290.9,-268.5 438.6,-357 179.7,-107.6 346.2,-161.7 497.3,-161.7 69,0 134.9,11.3 197.4,33.9 3.2,1.2 4.8,4.7 3.7,7.9 -0.4,1.2 -1.1,2.1 -2,2.8"
         style="fill:#58b59f;fill-opacity:1;fill-rule:nonzero;stroke:none"
         transform="matrix(0.13333333,0,0,-0.13333333,0,2829.3333)" />
      <path
         id="path16"
         d="m 12444.7,8823.4 c -24.6,85.6 -48.6,160.3 -73.4,228.4 -0.6,1.8 -2,3.2 -3.9,3.8 -60.5,19.6 -114.4,38.9 -164.9,58.8 -42.8,16.8 -84.3,34.8 -123.2,53.4 -27.5,13 -52.1,25.5 -75.5,38.2 -1,0.5 -3.6,0.8 -4.8,0.6 l -2.5,-0.2 c -2.4,-0.2 -4.4,-1.8 -5.3,-4 -9.4,-24.9 -24,-45.6 -43.4,-61.4 -1,-0.8 -2,-1.4 -3.1,-2.1 -1.1,-0.7 -2.3,-1.4 -3.4,-2.2 -1.4,-1 -2.4,-2.6 -2.5,-4.3 -0.2,-1.7 0.2,-3.5 1.4,-4.8 94.8,-111.4 174.8,-200.5 251.9,-280.5 10.3,-10.7 21.4,-20.9 32.2,-30.7 l 12.2,-11.3 c 73.7,-68.8 158.1,-129.6 250.7,-180.6 0.9,-0.5 2,-0.8 3,-0.8 1.3,0 2.7,0.5 3.8,1.3 2,1.6 2.9,4.2 2.2,6.6 -4.9,18.5 -9.8,36.9 -14.6,55.5 -11.8,44.7 -23.9,91 -36.9,136.3"
         style="fill:#fbc04d;fill-opacity:1;fill-rule:nonzero;stroke:none"
         transform="matrix(0.13333333,0,0,-0.13333333,0,2829.3333)" />
      <path
         id="path17"
         d="m 12846.5,8477.7 -4.3,12.1 c -50.6,143.4 -102.9,255.9 -164.6,354.2 -36.1,57.3 -77.3,110 -109.2,149.5 -40.9,50.7 -84.3,100.6 -126.3,149 -18.4,21.1 -36.7,42.2 -54.9,63.4 -28.2,33 -56.8,67.8 -84.5,101.5 -86,104.8 -175,213.2 -279.3,298.6 -96.8,79.3 -212.1,126.1 -342.8,139.1 -2.5,0.2 -3.9,-0.6 -5.3,-2 -1.3,-1.5 -1.8,-3.6 -1.4,-5.5 l 8.8,-39.8 c 0.2,-0.9 0.7,-1.8 1.3,-2.6 l 284.7,-348.9 c 32.4,-39.7 41,-94.8 22.5,-143.9 -0.7,-2 -0.4,-4.3 0.9,-6 1.3,-1.7 3.4,-2.5 5.6,-2.4 l 2.1,0.1 c 0,0 1.6,0.2 1.7,0.2 2.6,0.2 5.2,0.4 7.8,0.6 l 3.1,0.2 c 38.8,2.9 73.4,3.2 105.6,1 69.9,-4.8 137.8,-20.6 202.1,-46.9 12.9,-30.8 25.9,-64 39.6,-101.7 24.6,-67.8 48.5,-142.2 73,-227.5 12.9,-45.2 25.1,-91.4 36.8,-136.1 4.8,-18.5 9.7,-37.1 14.6,-55.5 26.5,-99.3 59,-214.3 110.7,-322.8 1.1,-2.1 3.2,-3.5 5.6,-3.5 0.3,0 0.5,0 0.8,0 l 24.5,2.9 c 22.1,2.7 44.9,5.4 67.1,7.2 60.1,4.8 123.9,8.5 195.1,11.2 1.9,0 3.7,1 4.9,2.6 1.1,1.5 1.4,3.5 0.9,5.4 -8.1,27.2 -16,53.9 -24.6,80.4 -7.2,22.1 -14.9,44 -22.6,65.9"
         style="fill:#3dc1f3;fill-opacity:1;fill-rule:nonzero;stroke:none"
         transform="matrix(0.13333333,0,0,-0.13333333,0,2829.3333)" />
      <path
         id="path18"
         d="m 14213.3,6570.5 c -4.7,23.6 -27.8,39 -51.5,34.2 -23.7,-4.7 -39.1,-27.8 -34.3,-51.5 65.2,-324.1 167.3,-641.3 303.7,-942.6 7.3,-16 23,-25.6 39.9,-25.6 6.2,0 12.6,1.4 18.8,4.2 l 9,5.7 c 0.3,0.2 0.5,0.4 0.7,0.6 14.7,12.5 19.4,33.6 11.4,51.2 -133.7,295.3 -233.8,606.1 -297.7,923.8"
         style="fill:#feef7b;fill-opacity:1;fill-rule:nonzero;stroke:none"
         transform="matrix(0.13333333,0,0,-0.13333333,0,2829.3333)" />
      <path
         id="path19"
         d="m 13821.8,7655.1 c -6.6,9.7 -16.5,16.2 -28,18.3 -11.7,2.2 -23.2,-0.3 -33,-7 -19.6,-13.9 -24.6,-41.2 -11.3,-60.8 44,-64.1 72.8,-138.6 83.3,-215.4 3,-21.9 21.8,-37.8 43.3,-37.8 2,0 4,0.1 6,0.4 8.3,1.1 16.1,4.6 22.5,10.1 11.3,9.7 17,24.4 15,39.2 -12.5,90.3 -46.3,177.8 -97.8,253"
         style="fill:#feef7b;fill-opacity:1;fill-rule:nonzero;stroke:none"
         transform="matrix(0.13333333,0,0,-0.13333333,0,2829.3333)" />
      <path
         id="path20"
         d="m 16788.7,4391 c 10.2,0 20.5,3.5 28.8,10.7 l 3.2,3.1 c 8.1,8.5 12.3,19.7 11.9,31.4 -0.4,11.7 -5.3,22.5 -13.9,30.5 -222.2,208.1 -512,333.2 -816,352.2 -0.9,0.1 -1.8,0.1 -2.7,0.1 -22.9,0 -42.2,-17.9 -43.8,-41 -1.4,-24.2 17,-45 41.1,-46.5 279.5,-17.5 557.1,-137.3 761.6,-328.7 8.4,-7.9 19.1,-11.8 29.8,-11.8"
         style="fill:#feef7b;fill-opacity:1;fill-rule:nonzero;stroke:none"
         transform="matrix(0.13333333,0,0,-0.13333333,0,2829.3333)" />
      <path
         id="path21"
         d="m 16209,3219.9 c 0.4,11.7 -3.7,22.9 -11.7,31.4 -7.9,8.6 -18.7,13.5 -30.4,13.9 -0.6,0.1 -1.2,0.1 -1.7,0.1 -23.3,0 -42.8,-18.6 -43.7,-42.2 -6.3,-170.4 37.9,-345.3 124.2,-492.5 8.1,-13.8 22.7,-21.5 37.7,-21.5 7.7,0 15.5,2 22.7,6.2 l 5.9,4.3 c 16.1,13.7 20,37 9.2,55.3 -78,133 -117.8,291.1 -112.2,445"
         style="fill:#feef7b;fill-opacity:1;fill-rule:nonzero;stroke:none"
         transform="matrix(0.13333333,0,0,-0.13333333,0,2829.3333)" />
      <path
         id="path22"
         d="m 17514.1,2964 c -0.6,23.7 -20.2,42.6 -43.8,42.6 -0.4,0 -0.8,0 -1.2,0 -24.1,-0.7 -43.1,-20.9 -42.5,-45 5,-175.9 -85.8,-353.5 -231.3,-452.5 -145.5,-99 -344,-118.1 -505.9,-48.7 -10.8,4.7 -22.8,4.8 -33.6,0.4 -10.8,-4.4 -19.3,-12.7 -23.8,-23.4 -9.5,-22.1 0.8,-47.9 23,-57.4 75.4,-32.4 157.6,-48.3 240,-48.3 123.7,0 247.7,35.8 349.5,105 17.6,11.9 35,25.2 51.8,39.6 139.5,119.9 223,306.8 217.8,487.7"
         style="fill:#feef7b;fill-opacity:1;fill-rule:nonzero;stroke:none"
         transform="matrix(0.13333333,0,0,-0.13333333,0,2829.3333)" />
      <path
         id="path23"
         d="m 17578.2,2776.6 c -0.4,0 -0.7,0 -1.1,0 -24.2,-0.6 -43.4,-20.7 -42.7,-44.8 3.5,-151.5 -84.1,-300.9 -218.1,-371.7 -10.3,-5.5 -17.9,-14.7 -21.3,-25.8 -3.5,-11.2 -2.3,-23.1 3.2,-33.4 5.4,-10.3 14.5,-17.9 25.7,-21.4 4.2,-1.3 8.6,-1.9 12.9,-1.9 7.1,0 14.1,1.7 20.5,5.1 31,16.4 60.4,36.5 87.4,59.8 114.4,98.2 180.6,244.5 177.2,391.4 -0.6,23.8 -20.1,42.7 -43.7,42.7"
         style="fill:#feef7b;fill-opacity:1;fill-rule:nonzero;stroke:none"
         transform="matrix(0.13333333,0,0,-0.13333333,0,2829.3333)" />
      <path
         id="path24"
         d="m 14909.6,6778.3 c -433.4,231.2 -884.8,439.9 -1341.7,620.3 -10.8,4.3 -22.7,4.1 -33.5,-0.6 -10.7,-4.6 -19,-13.2 -23.3,-24 -8.8,-22.5 2.3,-48 24.7,-56.8 453.5,-179.1 901.9,-386.4 1332.7,-616.1 6.3,-3.4 13.2,-5.1 20.3,-5.1 10.4,0 21,3.8 29.6,11.3 l 9.3,11.8 c 11.3,21.3 3.2,47.9 -18.1,59.2"
         style="fill:#76d3f6;fill-opacity:1;fill-rule:nonzero;stroke:none"
         transform="matrix(0.13333333,0,0,-0.13333333,0,2829.3333)" />
      <path
         id="path25"
         d="m 15633.6,5917.8 c -0.3,0 -0.7,0 -1.1,-0.1 -11.5,-0.2 -22.3,-5.1 -30.3,-13.6 -16.7,-17.3 -16.1,-45.1 1.2,-61.8 116.5,-112.2 183.8,-290.1 189.5,-500.9 4.1,-148.8 -20.4,-300.8 -44,-448.1 -6.6,-41.1 -13.3,-82.2 -19.4,-123.3 -26.8,-182.9 -46.3,-396.9 12.4,-597.3 3.3,-11.2 10.7,-20.5 21,-26.1 6.5,-3.6 13.8,-5.4 21,-5.4 4.1,0 8.3,0.6 12.3,1.8 6.1,1.8 11.6,4.7 16.3,8.8 13,11.1 18.2,29 13.5,45.5 -54,184.3 -35.3,386.5 -9.8,559.9 5.6,37.9 11.6,75.7 17.7,113.5 l 1.4,8.7 c 24.3,150.8 49.5,306.8 45.2,464.4 -6.4,233.9 -83.2,433.3 -216.3,561.5 -8.4,8.1 -19.2,12.5 -30.6,12.5"
         style="fill:#76d3f6;fill-opacity:1;fill-rule:nonzero;stroke:none"
         transform="matrix(0.13333333,0,0,-0.13333333,0,2829.3333)" />
      <path
         id="path26"
         d="m 17007.7,4539 c 88,29.6 193.9,7.9 263.3,-54.1 8.2,-7.3 18.6,-11 29,-11 10.2,0 20.6,3.5 29,10.7 l 3.8,3.8 c 7.8,8.7 11.7,20 11.1,31.6 -0.7,11.7 -5.9,22.4 -14.6,30.2 -93.4,83.5 -230.6,111.7 -349.6,71.9 0,0 0,0 0,-0.1 -22.8,-7.7 -35.2,-32.5 -27.5,-55.4 7.6,-22.8 32.2,-35.2 55.5,-27.6"
         style="fill:#76d3f6;fill-opacity:1;fill-rule:nonzero;stroke:none"
         transform="matrix(0.13333333,0,0,-0.13333333,0,2829.3333)" />
      <path
         id="path27"
         d="m 17552.5,3831.1 c 8.9,22.4 -2.2,47.9 -24.7,56.8 -22.2,8.7 -47.8,-2.2 -56.8,-24.6 -72.4,-183.2 -225.4,-334.8 -409.1,-405.6 -183.8,-70.8 -399,-61 -575.6,26.2 -21.7,10.6 -47.9,1.7 -58.6,-19.9 -5.2,-10.5 -6,-22.4 -2.2,-33.5 3.7,-11 11.6,-20 22,-25.1 110.4,-54.5 234.1,-82.1 357.8,-82.1 98.4,0 196.6,17.5 288,52.7 84.1,32.4 162.5,79.6 233,140.3 100.7,86.4 178.9,195.3 226.2,314.8"
         style="fill:#76d3f6;fill-opacity:1;fill-rule:nonzero;stroke:none"
         transform="matrix(0.13333333,0,0,-0.13333333,0,2829.3333)" />
      <path
         id="path28"
         d="m 17644.2,3704.6 c -10.8,4.3 -22.7,4.1 -33.5,-0.4 -10.8,-4.6 -19.1,-13.2 -23.4,-24.1 -58.8,-147 -190.1,-264.5 -342.8,-306.6 -23.2,-6.4 -37,-30.6 -30.5,-53.8 5.3,-19.4 23,-32.2 42.2,-32.2 3.9,0 7.8,0.5 11.6,1.6 83.6,23.1 163.8,66.3 232.2,125 75,64.5 133.3,145.3 168.6,233.5 8.9,22.4 -2,48 -24.4,57"
         style="fill:#76d3f6;fill-opacity:1;fill-rule:nonzero;stroke:none"
         transform="matrix(0.13333333,0,0,-0.13333333,0,2829.3333)" />
      <path
         id="path29"
         d="m 17775.6,3567 c -23.4,5.1 -47,-9.6 -52.3,-33.1 -17.2,-76 -64.1,-144.6 -128.7,-188.1 -20.2,-13.8 -25.5,-40.4 -11.8,-60.8 6.5,-9.6 16.5,-16.2 27.9,-18.4 2.8,-0.6 5.7,-0.9 8.5,-0.9 8.7,0 17.1,2.6 24.4,7.5 12.2,8.3 24.3,17.5 35.9,27.4 64.7,55.6 110.6,131.6 129.2,214 5.3,23.5 -9.5,47 -33.1,52.4"
         style="fill:#76d3f6;fill-opacity:1;fill-rule:nonzero;stroke:none"
         transform="matrix(0.13333333,0,0,-0.13333333,0,2829.3333)" />
      <path
         id="path30"
         d="m 15696.6,5386.5 c -24,3 -46,-13.7 -49.3,-37.6 l -65.4,-487 c -1.5,-11.6 1.5,-23.1 8.6,-32.4 7.1,-9.3 17.4,-15.2 28.9,-16.8 2,-0.3 3.9,-0.4 5.8,-0.4 10.5,0 20.6,3.7 28.7,10.6 8.1,7.1 13.4,16.8 14.8,27.4 l 65.4,486.9 c 3.2,24 -13.7,46 -37.5,49.3"
         style="fill:#76d3f6;fill-opacity:1;fill-rule:nonzero;stroke:none"
         transform="matrix(0.13333333,0,0,-0.13333333,0,2829.3333)" />
      <path
         id="path31"
         d="m 14313.7,7876.8 c -531.2,339.2 -1191.1,466.8 -1810.5,350 -11.5,-2.1 -21.5,-8.7 -28.1,-18.4 -6.6,-9.6 -9,-21.3 -6.8,-32.7 2.1,-11.5 8.6,-21.4 18.3,-28 9.7,-6.6 21.2,-9.1 32.9,-6.9 597.6,112.7 1234.5,-10.5 1747,-337.8 7.2,-4.5 15.2,-6.8 23.4,-6.8 10.4,0 20.9,3.7 29.5,11.1 l 7.7,9 c 6.2,9.9 8.3,21.6 5.8,33 -2.5,11.4 -9.4,21.2 -19.2,27.5"
         style="fill:#92c79d;fill-opacity:1;fill-rule:nonzero;stroke:none"
         transform="matrix(0.13333333,0,0,-0.13333333,0,2829.3333)" />
      <path
         id="path32"
         d="m 14941.1,4900.3 c 27.9,95.3 58.2,192.3 87.4,286 l 2.1,6.6 c 120.1,384.2 244.2,781.5 247.9,1191.2 0.1,11.7 -4.4,22.7 -12.5,31 -8.2,8.4 -19.2,13.1 -30.9,13.2 -0.1,0 -0.2,0 -0.3,0 -24,0 -43.6,-19.4 -43.9,-43.4 -3.5,-396.6 -125.7,-787.5 -243.9,-1166.1 -30.1,-96 -61.1,-195.4 -90,-294 -127.8,-437.1 -249.2,-1004.4 -51.7,-1514.8 4.2,-10.9 12.4,-19.5 23.1,-24.3 5.5,-2.4 11.3,-3.7 17.3,-3.7 5.6,0 11.4,1.1 17.1,3.4 l 11.8,7.2 c 14.1,12.1 19,31.7 12.3,49 -187.9,485.8 -69.7,1034.7 54.2,1458.7"
         style="fill:#92c79d;fill-opacity:1;fill-rule:nonzero;stroke:none"
         transform="matrix(0.13333333,0,0,-0.13333333,0,2829.3333)" />
      <path
         id="path33"
         d="m 16648.3,1620.2 c -7.7,8.8 -18.3,14.1 -30,14.9 -343.5,23.2 -670.6,185.1 -897.5,443.9 -15.8,18.2 -41.7,19.9 -61.7,4.1 -8.8,-7.8 -14.1,-18.4 -14.9,-30.1 -0.8,-11.7 3.1,-22.9 10.8,-31.7 242,-276.2 591,-448.8 957.3,-473.6 1,-0.1 2,-0.1 3,-0.1 10.5,0 20.5,3.7 28.6,10.6 9,7.7 14.3,18.5 15.1,30.2 0.8,11.7 -3,23 -10.7,31.8"
         style="fill:#92c79d;fill-opacity:1;fill-rule:nonzero;stroke:none"
         transform="matrix(0.13333333,0,0,-0.13333333,0,2829.3333)" />
      <path
         id="path34"
         d="m 16033.8,1832.7 v 0 c 95.1,-41.7 199.3,-63.4 303.1,-63.4 9.3,0 18.7,0.2 28,0.5 10,0.4 19.3,4.1 26.9,10.6 10.1,8.8 15.7,21.5 15.2,34.9 -0.9,23.5 -20.4,42.1 -43.8,42.1 -0.5,0 -1.1,0 -1.6,0 -99.9,-3.7 -201.2,15.4 -292.7,55.5 -22,9.8 -48,-0.4 -57.7,-22.5 -9.7,-22.2 0.4,-48 22.6,-57.7"
         style="fill:#92c79d;fill-opacity:1;fill-rule:nonzero;stroke:none"
         transform="matrix(0.13333333,0,0,-0.13333333,0,2829.3333)" />
      <path
         id="path35"
         d="m 15327.7,5696.2 c -11.2,3.7 -23.1,2.8 -33.5,-2.6 -10.5,-5.3 -18.2,-14.3 -21.8,-25.3 -160.8,-489.8 -293.6,-994.5 -394.8,-1500 -2.3,-11.5 0,-23.2 6.4,-32.9 6.5,-9.7 16.4,-16.3 27.9,-18.6 2.9,-0.6 5.8,-0.9 8.7,-0.9 10.4,0 20.4,3.7 28.4,10.6 7.4,6.4 12.5,15.1 14.4,24.6 100.7,502.7 232.6,1003.9 392.3,1489.8 7.5,22.9 -5,47.7 -28,55.3"
         style="fill:#92c79d;fill-opacity:1;fill-rule:nonzero;stroke:none"
         transform="matrix(0.13333333,0,0,-0.13333333,0,2829.3333)" />
      <path
         id="path36"
         d="m 15387.7,5467.1 c -11.4,1.5 -23.1,-1.4 -32.5,-8.5 -9.3,-7.1 -15.3,-17.3 -16.8,-28.9 -18.7,-135.2 -53.1,-268.3 -102.2,-395.7 -8.7,-22.5 2.6,-47.9 25.2,-56.6 5.1,-1.9 10.4,-2.9 15.7,-2.9 10.3,0 20.5,3.6 28.6,10.6 5.4,4.6 9.6,10.7 12.2,17.5 51.5,133.5 87.5,273.3 107.2,415.2 1.6,11.5 -1.4,23 -8.4,32.3 -7.1,9.4 -17.3,15.4 -29,17"
         style="fill:#92c79d;fill-opacity:1;fill-rule:nonzero;stroke:none"
         transform="matrix(0.13333333,0,0,-0.13333333,0,2829.3333)" />
      <path
         id="path37"
         d="m 13502.8,8036.3 c -285.9,74.2 -591,87.6 -882.4,38.7 -11.6,-2 -21.7,-8.3 -28.4,-17.8 -6.9,-9.6 -9.5,-21.2 -7.5,-32.7 3.9,-23.8 26.5,-40 50.3,-35.9 279.3,46.9 571.9,34 846,-37.1 3.6,-0.9 7.3,-1.3 11,-1.3 10.4,0 20.5,3.6 28.6,10.5 6.8,5.8 11.5,13.5 13.8,22.2 6.1,23.5 -8,47.4 -31.4,53.4"
         style="fill:#92c79d;fill-opacity:1;fill-rule:nonzero;stroke:none"
         transform="matrix(0.13333333,0,0,-0.13333333,0,2829.3333)" />
      <path
         id="path38"
         d="m 13289.1,7938.1 c -132,9.4 -264,-2.2 -392.4,-34 -11.3,-2.8 -20.9,-9.9 -27,-19.9 -6,-10.1 -7.8,-21.8 -5,-33.1 2.8,-11.4 9.9,-20.9 19.9,-27 6.9,-4.2 14.6,-6.3 22.5,-6.3 3.5,0 7.1,0.4 10.7,1.3 119.4,29.6 242.6,40.2 365.2,31.7 11.5,-0.9 22.8,2.8 31.6,10.4 8.9,7.7 14.3,18.4 15.2,30.2 1.6,24.1 -16.6,45 -40.7,46.7"
         style="fill:#92c79d;fill-opacity:1;fill-rule:nonzero;stroke:none"
         transform="matrix(0.13333333,0,0,-0.13333333,0,2829.3333)" />
      <path
         id="path39"
         d="m 9898.66,18412.2 c -53.3,65.4 -150.06,75.2 -215.45,21.8 l -99.24,-80.9 c -1.85,-1.5 -2.68,-4 -2.09,-6.3 0.53,-2.3 2.38,-4.1 4.77,-4.6 l 187.43,-39.5 36.01,-162.3 c 0.48,-2.1 1.99,-3.9 4.04,-4.6 0.68,-0.2 1.36,-0.3 2.04,-0.3 1.42,0 2.83,0.5 3.95,1.4 l 63.34,51.7 c 31.57,25.8 51.25,62.4 55.39,103.2 4.14,40.8 -7.74,80.7 -33.52,112.3 l -6.67,8.1"
         style="fill:#ae523c;fill-opacity:1;fill-rule:nonzero;stroke:none"
         transform="matrix(0.13333333,0,0,-0.13333333,0,2829.3333)" />
      <path
         id="path40"
         d="m 3429.78,13127.1 -0.98,191.5 c 0,2.4 -1.41,4.6 -3.56,5.6 -2.24,1.1 -4.82,0.7 -6.62,-0.8 l -119.76,-97.7 c -65.43,-53.4 -75.22,-150 -21.83,-215.4 l 6.63,-8.2 c 30.21,-37 74.3,-56.3 118.78,-56.3 34.06,0 68.31,11.3 96.67,34.5 l 83.89,68.4 c 1.66,1.4 2.54,3.5 2.25,5.6 -0.3,2.2 -1.66,4 -3.66,4.9 l -151.81,67.9"
         style="fill:#ae523c;fill-opacity:1;fill-rule:nonzero;stroke:none"
         transform="matrix(0.13333333,0,0,-0.13333333,0,2829.3333)" />
      <path
         id="path41"
         d="m 3508.85,19736 c -26.65,32.7 -64.55,53 -106.8,57.3 -41.65,4 -83.36,-8 -116.05,-34.7 -32.64,-26.6 -53.01,-64.5 -57.29,-106.7 -4.29,-42.2 8.03,-83.5 34.68,-116.1 l 123.22,-151.1 c 1.22,-1.5 2.97,-2.3 4.82,-2.3 0.69,0 1.41,0.2 2.1,0.4 2.48,0.9 4.14,3.3 4.14,5.9 l -1.32,255.6 208.87,-44 c 2.29,-0.4 5.21,0.6 6.58,2.9 1.41,2.3 1.17,5.1 -0.49,7.2 l -102.46,125.6"
         style="fill:#ae523c;fill-opacity:1;fill-rule:nonzero;stroke:none"
         transform="matrix(0.13333333,0,0,-0.13333333,0,2829.3333)" />
      <path
         id="path42"
         d="m 11978.3,9354.2 -284.7,348.9 c -1.8,2.3 -4.9,3 -7.5,1.7 -2.6,-1.3 -4,-4.2 -3.4,-7 l 64.3,-289.7 -324.7,145.2 c -2.7,1.2 -5.7,0.4 -7.5,-1.9 -1.8,-2.3 -1.7,-5.5 0.1,-7.8 l 318,-389.7 c 30.2,-37 74.8,-57.5 121.9,-57.5 11.6,0 23.3,1.2 34.9,3.8 21.4,4.6 41.2,13.5 58.9,26.4 0.8,0.6 1.7,1.1 2.6,1.7 1.5,0.9 3.1,1.9 4.5,3 21.1,17.2 37,39.7 47.2,66.7 20,53.2 10.6,113.1 -24.6,156.2"
         style="fill:#ae523c;fill-opacity:1;fill-rule:nonzero;stroke:none"
         transform="matrix(0.13333333,0,0,-0.13333333,0,2829.3333)" />
      <path
         id="path43"
         d="m 8737.83,18161 c -3.65,-16.9 -20.51,-27.4 -37.17,-24 l -4127.45,884.1 c -16.86,3.6 -27.67,20.3 -24.07,37.2 0,0 0,0 0,0 1.75,8.2 6.58,15.2 13.59,19.7 5.17,3.3 10.97,5.1 16.96,5.1 2.19,0 4.43,-0.3 6.63,-0.8 l 4127.45,-884.1 c 16.85,-3.6 27.66,-20.3 24.06,-37.2 z M 7598.3,18050.9 c -1.76,-8.1 -6.58,-15.1 -13.6,-19.7 -6.96,-4.5 -15.44,-6 -23.58,-4.3 l -2236.1,480.7 c -8.18,1.8 -15.2,6.6 -19.73,13.6 -4.53,7.1 -6.04,15.4 -4.29,23.6 1.76,8.2 6.58,15.2 13.59,19.7 6.97,4.5 15.4,6.1 23.59,4.3 l 2236.1,-480.7 c 8.18,-1.7 15.2,-6.6 19.73,-13.6 4.53,-7 6.04,-15.4 4.29,-23.6 z m -688.43,-66.5 c -1.75,-8.1 -6.58,-15.1 -13.59,-19.7 -6.97,-4.5 -15.4,-6 -23.59,-4.3 l -786.79,169.1 c -8.19,1.8 -15.2,6.6 -19.73,13.7 -4.53,7 -6.04,15.4 -4.29,23.5 1.75,8.2 6.58,15.2 13.59,19.7 5.12,3.4 10.97,5.1 16.96,5.1 2.19,0 4.43,-0.3 6.62,-0.7 l 786.8,-169.2 c 8.19,-1.7 15.2,-6.6 19.73,-13.6 4.53,-7 6.04,-15.4 4.29,-23.6 z m -3518.54,1673.7 c -2.33,0.5 -5.21,-0.6 -6.57,-2.9 -1.41,-2.3 -1.17,-5.1 0.49,-7.2 L 6478.4,15856.5 c 1.65,-2 4.38,-2.8 6.77,-2 12.52,4.2 25.87,0.4 34.06,-9.7 l 371.54,-455.3 c 1.12,-1.4 2.78,-2.3 4.58,-2.3 0.05,0 0.14,0 0.24,0 1.71,0 3.32,0.7 4.48,1.9 l 484,501.8 c 12.03,12.4 31.91,12.8 44.04,0.9 0.25,-0.3 1.22,-1.8 1.51,-2.1 1.13,-1.3 2.78,-2 4.48,-2 2.2,0.1 3.47,0.6 4.63,1.9 l 2345.04,2414.1 c 1.56,1.6 2.15,4 1.46,6.1 -0.63,2.2 -2.43,3.8 -4.67,4.3 l -6389.23,1344"
         style="fill:#58b59f;fill-opacity:1;fill-rule:nonzero;stroke:none"
         transform="matrix(0.13333333,0,0,-0.13333333,0,2829.3333)" />
      <path
         id="path44"
         d="m 4580.76,16156.7 c -0.49,-8.3 -4.24,-15.9 -10.47,-21.4 -6.29,-5.5 -14.52,-8.2 -22.76,-7.8 -17.2,1.1 -30.35,16 -29.23,33.2 l 39.56,621.3 c 0.49,8.3 4.24,16 10.48,21.5 5.8,5.1 13.06,7.8 20.71,7.8 0.68,0 1.36,0 2.04,0 17.2,-1.2 30.35,-16.1 29.23,-33.3 z m -369.25,-529.4 c -0.15,-8.4 -3.56,-16.2 -9.6,-22 -5.9,-5.7 -13.55,-8.7 -21.69,-8.7 -0.19,0 -0.39,0 -0.63,0 -8.33,0.1 -16.17,3.5 -21.97,9.5 -5.8,6.1 -8.87,14 -8.72,22.3 l 30.79,1615.7 c 0.34,17.1 14.32,30.7 31.28,30.7 0.2,0 0.39,0 0.58,0 8.38,-0.2 16.23,-3.6 22.03,-9.6 5.74,-6 8.86,-14 8.67,-22.3 z m -342.27,-1030.7 c -0.05,0 -0.1,0 -0.2,0 -17.14,0 -31.18,13.9 -31.27,31.1 l -20.37,3520.1 c -0.05,8.4 3.12,16.3 9.01,22.2 5.9,6 13.74,9.3 22.12,9.3 0.05,0 0.1,0 0.15,0 17.15,0 31.23,-13.9 31.33,-31.1 l 20.41,-3520.1 c 0.1,-17.3 -13.89,-31.4 -31.18,-31.5 z m 2601.46,1208.7 c -5.27,6.5 -7.75,14.6 -6.87,22.9 0.83,8.3 4.87,15.8 11.35,21.1 2.68,2.2 5.84,3.8 9.99,5.2 1.95,0.7 3.46,2.2 4.04,4.2 0.59,2 0.15,4.1 -1.17,5.7 l -3093.15,3791.5 c -1.66,2 -4.38,2.8 -6.91,1.9 -2.49,-0.9 -4.15,-3.2 -4.15,-5.9 l 32.5,-6333.3 0.98,-195.6 c 0,-2.3 1.26,-4.3 3.26,-5.4 0.92,-0.6 1.94,-0.8 2.97,-0.8 1.17,0 2.34,0.3 3.36,1 l 2816.95,1800.3 c 1.41,0.9 2.39,2.3 2.73,3.9 0.34,1.7 0.05,3.3 -0.83,4.7 -4.53,7.1 -6.04,15.4 -4.24,23.6 1.81,8.2 6.68,15.2 13.74,19.7 l 583.63,373 c 1.51,0.9 2.54,2.5 2.78,4.2 0.29,1.8 -0.2,3.6 -1.32,5 l -369.64,453.1"
         style="fill:#fbc04d;fill-opacity:1;fill-rule:nonzero;stroke:none"
         transform="matrix(0.13333333,0,0,-0.13333333,0,2829.3333)" />
      <path
         id="path45"
         d="m 9667.28,14396.9 c 1.42,-8.3 -0.43,-16.5 -5.26,-23.4 -4.82,-6.8 -12.03,-11.4 -20.27,-12.8 -8.28,-1.4 -16.61,0.5 -23.38,5.3 -6.87,4.8 -11.4,12 -12.82,20.2 l -231.33,1340.5 c -2.92,17 8.58,33.2 25.58,36.2 1.76,0.3 3.56,0.4 5.37,0.4 6.38,0 12.66,-1.9 17.97,-5.7 6.87,-4.8 11.4,-12 12.81,-20.3 z m -63.53,1704.2 c 4.53,7 11.55,11.9 19.78,13.6 2.2,0.5 4.39,0.7 6.58,0.7 5.99,0 11.84,-1.7 17,-5 7.02,-4.6 11.84,-11.6 13.59,-19.7 l 617.5,-2891.8 c 3.6,-16.8 -7.2,-33.5 -24.1,-37.1 -16.9,-3.7 -33.5,7.2 -37.1,24 l -617.54,2891.8 c 0,0 0,0 0,0 -1.75,8.1 -0.24,16.5 4.29,23.5 z m 162.29,810.3 c 14.33,0 27.28,-9.9 30.55,-24.4 L 10938,11825.4 c 3.8,-16.9 -6.8,-33.7 -23.6,-37.5 -16.9,-4 -33.7,6.9 -37.5,23.7 l -1141.36,5061.7 c -1.85,8.1 -0.39,16.5 4.05,23.5 4.48,7.1 11.45,12 19.58,13.9 2.29,0.5 4.63,0.7 6.87,0.7 z m 19.34,1397.9 c -0.48,2.3 -2.19,4.1 -4.38,4.7 -2.2,0.7 -4.58,0 -6.19,-1.7 L 7429.77,15898.2 c -2.29,-2.3 -2.34,-6 -0.15,-8.4 11.06,-12.5 10.87,-30.7 -0.48,-42.4 l -490.23,-508.2 c -2.2,-2.3 -2.34,-5.9 -0.35,-8.3 l 496.42,-608.6 c 8.19,-10 9.26,-23.9 2.64,-35.3 -1.27,-2.2 -1.08,-5.1 0.58,-7.1 l 4312.7,-5286.5 c 1.2,-1.5 3.1,-2.3 4.9,-2.3 0.9,0 1.8,0.2 2.7,0.7 2.6,1.2 4,4.1 3.3,6.9 l -1976.42,8910.6"
         style="fill:#1b77b0;fill-opacity:1;fill-rule:nonzero;stroke:none"
         transform="matrix(0.13333333,0,0,-0.13333333,0,2829.3333)" />
      <path
         id="path46"
         d="m 12609,6976.8 v 0.1 l -0.1,2.1 c -8.8,193.1 -17.1,375.5 -38.1,551.9 -1.4,11.6 -7.2,22 -16.4,29.2 -9.2,7.3 -20.8,10.5 -32.3,9.1 -23.9,-2.8 -41.1,-24.7 -38.3,-48.7 20.8,-175 29,-356 37.6,-547.6 17.7,-389.7 35.9,-792.7 163,-1160.8 3.8,-11.1 11.7,-20 22.2,-25.1 6.1,-3 12.6,-4.4 19.1,-4.4 4.9,0 9.7,0.8 14.3,2.4 5.2,1.7 10.1,4.5 14.3,8.2 13.7,11.7 18.8,30.4 12.9,47.5 -122.9,356 -140.9,752.6 -158.2,1136.1"
         style="fill:#ef3643;fill-opacity:1;fill-rule:nonzero;stroke:none"
         transform="matrix(0.13333333,0,0,-0.13333333,0,2829.3333)" />
      <path
         id="path47"
         d="m 14516.8,4471.1 c -290.2,78.2 -573,187.8 -840.5,325.7 -21.4,10.9 -47.8,2.6 -59,-18.8 -5.3,-10.4 -6.3,-22.2 -2.8,-33.4 3.6,-11.1 11.3,-20.2 21.7,-25.6 272.9,-140.8 561.5,-252.6 857.8,-332.4 3.8,-1.1 7.6,-1.6 11.4,-1.6 10.4,0 20.5,3.7 28.6,10.7 6.6,5.7 11.4,13.2 13.7,21.8 3,11.2 1.5,23 -4.3,33.2 -5.9,10.1 -15.3,17.4 -26.6,20.4"
         style="fill:#ef3643;fill-opacity:1;fill-rule:nonzero;stroke:none"
         transform="matrix(0.13333333,0,0,-0.13333333,0,2829.3333)" />
      <path
         id="path48"
         d="m 15901.6,3359.2 c -8.2,8.4 -19.1,13.1 -30.8,13.3 -11.5,0.1 -22.8,-4.2 -31.2,-12.4 -8.3,-8.2 -13,-19.1 -13.2,-30.7 -4.3,-313.6 -162,-626.5 -411.5,-816.6 -18.4,-14.4 -22.2,-43 -8.2,-61.3 8.6,-11.2 21.6,-17.2 34.8,-17.2 9.3,0 18.6,2.9 26.6,8.9 15.9,12.2 32.2,25.4 48.3,39.3 244.5,210.1 393.1,526.2 397.6,845.6 0.1,11.7 -4.3,22.8 -12.4,31.1"
         style="fill:#ef3643;fill-opacity:1;fill-rule:nonzero;stroke:none"
         transform="matrix(0.13333333,0,0,-0.13333333,0,2829.3333)" />
      <path
         id="path49"
         d="m 15225.5,2320.4 c 0.1,0 0.1,0.1 0.2,0.2 17.2,14.7 20.3,39.8 7.2,58.4 -6.7,9.5 -16.8,15.9 -28.3,17.9 -11.6,2 -23.2,-0.7 -32.7,-7.4 -129.9,-91.6 -300.6,-129 -457.3,-100 -11.4,2.1 -23.1,-0.3 -32.8,-7 -9.7,-6.6 -16.1,-16.6 -18.2,-28 -4.5,-23.8 11.3,-46.7 35.1,-51.1 41.2,-7.7 82.9,-11.4 124.5,-11.4 141.8,0 282.5,43.6 399.4,126.1 l 2.9,2.3"
         style="fill:#ef3643;fill-opacity:1;fill-rule:nonzero;stroke:none"
         transform="matrix(0.13333333,0,0,-0.13333333,0,2829.3333)" />
      <path
         id="path50"
         d="m 12728.9,7075.1 c -8.8,7.7 -19.9,11.5 -31.8,10.6 -11.6,-0.7 -22.3,-6 -29.9,-14.8 -7.7,-8.8 -11.5,-20.1 -10.7,-31.8 l 39.6,-582.3 c 1.7,-23.1 21,-40.8 43.7,-40.8 1,0 2,0 3,0.1 9.4,0.6 18.5,4.3 25.5,10.5 10.5,8.9 16.2,22.5 15.2,36.1 l -39.6,582.4 c -0.9,11.7 -6.1,22.3 -15,30"
         style="fill:#ef3643;fill-opacity:1;fill-rule:nonzero;stroke:none"
         transform="matrix(0.13333333,0,0,-0.13333333,0,2829.3333)" />
      <path
         id="path51"
         d="m 15902.3,2782.7 c -6.5,9.7 -16.5,16.3 -27.9,18.6 -11.7,2.3 -23.2,-0.1 -33,-6.7 -9.6,-6.5 -16.2,-16.4 -18.5,-27.8 -26.3,-133.6 -111.5,-255.6 -227.7,-326.4 -20.6,-12.8 -27.1,-39.7 -14.6,-60.2 8.2,-13.5 22.7,-21 37.5,-21 7.7,0 15.6,2.1 22.7,6.4 25.6,15.6 50.4,33.7 73.8,53.8 100.2,86.1 169.2,203.5 194.3,330.4 2.2,11.5 -0.1,23.2 -6.6,32.9"
         style="fill:#ef3643;fill-opacity:1;fill-rule:nonzero;stroke:none"
         transform="matrix(0.13333333,0,0,-0.13333333,0,2829.3333)" />
      <path
         id="path52"
         d="m 15224.5,2177 v 0 l -1.3,-1.1 c -67.3,-57.9 -162.8,-81.1 -249,-60.6 -24,5.7 -47.2,-9 -52.8,-32.5 -5.6,-23.5 9,-47.1 32.5,-52.7 27.2,-6.4 55.1,-9.6 82.9,-9.6 88.2,0 176.5,31.4 243.5,89 l 1.5,1.3 c 18.2,15.9 20.1,43.6 4.3,61.8 -15.8,18.1 -43.4,20.2 -61.6,4.4"
         style="fill:#ef3643;fill-opacity:1;fill-rule:nonzero;stroke:none"
         transform="matrix(0.13333333,0,0,-0.13333333,0,2829.3333)" />
      <path
         id="path53"
         d="m 16004.4,2594.8 c -8.2,8.3 -19.2,12.9 -30.9,13 -0.1,0 -0.3,0 -0.4,0 -11.5,0 -22.4,-4.4 -30.6,-12.5 -8.4,-8.2 -13,-19.2 -13.1,-30.8 -0.5,-50.6 -36.9,-100.7 -84.8,-116.7 -11.1,-3.7 -20.1,-11.5 -25.3,-22 -5.2,-10.4 -6.1,-22.3 -2.4,-33.4 6.2,-18.3 23.3,-29.9 41.7,-29.9 4.5,0 9.2,0.7 13.8,2.2 24.7,8.3 47.7,21.5 68.2,39.2 47.3,40.6 75.8,100.4 76.3,159.8 0.1,11.7 -4.3,22.7 -12.5,31.1"
         style="fill:#ef3643;fill-opacity:1;fill-rule:nonzero;stroke:none"
         transform="matrix(0.13333333,0,0,-0.13333333,0,2829.3333)" />
      <path
         id="path54"
         d="m 9741.19,10779.7 c -7.06,-15.8 -25.67,-22.9 -41.36,-15.7 l -4540.51,2049.7 c -15.73,7.1 -22.75,25.7 -15.63,41.4 5.21,11.6 16.61,18.4 28.54,18.4 4.29,0 8.68,-0.9 12.82,-2.7 l 4540.5,-2049.7 c 15.74,-7.1 22.76,-25.7 15.64,-41.4 z m -3019.92,1774.9 c 7.36,15.5 26.11,22.2 41.66,14.9 l 1973.88,-933.7 c 7.55,-3.6 13.25,-9.9 16.07,-17.8 2.83,-7.8 2.44,-16.3 -1.16,-23.9 -7.36,-15.6 -26.17,-22.2 -41.66,-14.9 l -1973.93,933.7 c -15.59,7.3 -22.27,26 -14.86,41.7 z m 719.37,82.9 c 5.65,10.6 16.51,16.6 27.72,16.6 4.97,0 9.99,-1.2 14.66,-3.7 l 1084.92,-576.5 c 7.4,-3.9 12.81,-10.5 15.25,-18.4 2.44,-8 1.66,-16.5 -2.29,-23.9 -8.04,-15.2 -26.99,-21.1 -42.34,-12.9 l -1084.92,576.4 c -15.25,8.2 -21.09,27.2 -13,42.4 z m 7.2,2050.3 c -1.26,1.6 -3.21,2.8 -5.3,2.3 -2.05,-0.2 -3.86,-1.3 -4.92,-3.1 -2.2,-3.8 -4.49,-6.6 -7.12,-8.7 -6.53,-5.3 -14.76,-7.5 -22.95,-6.9 -8.33,0.8 -15.78,4.9 -21.09,11.4 l -498.32,610.8 c -2,2.4 -5.6,3 -8.19,1.3 l -590.98,-377.7 c -7.02,-4.5 -15.59,-6 -23.58,-4.2 -8.19,1.8 -15.15,6.7 -19.64,13.7 -0.88,1.4 -2.29,2.4 -3.89,2.8 -1.76,0.3 -3.32,0 -4.73,-0.9 L 3420.18,13128.3 c -1.95,-1.2 -3.02,-3.4 -2.87,-5.7 0.19,-2.3 1.6,-4.3 3.7,-5.3 L 11753.2,9391.7 c 0.9,-0.4 1.7,-0.6 2.6,-0.6 1.9,0 3.7,0.9 4.9,2.5 1.8,2.3 1.7,5.5 -0.1,7.7 l -4312.76,5286.5"
         style="fill:#ef3643;fill-opacity:1;fill-rule:nonzero;stroke:none"
         transform="matrix(0.13333333,0,0,-0.13333333,0,2829.3333)" />
      <path
         id="path55"
         d="m 8716.4,18210.4 -4127.45,884.1 c -11.55,2.5 -23.14,0.4 -32.99,-6 -9.79,-6.3 -16.56,-16.2 -19,-27.6 -5.06,-23.6 10.04,-46.9 33.62,-52 l 4127.45,-884.1 c 3.07,-0.7 6.14,-1 9.21,-1 20.17,0 38.39,14.1 42.77,34.6 5.07,23.6 -10.03,46.9 -33.61,52"
         style="fill:#a1debc;fill-opacity:1;fill-rule:nonzero;stroke:none"
         transform="matrix(0.13333333,0,0,-0.13333333,0,2829.3333)" />
      <path
         id="path56"
         d="m 7576.91,18100.3 -2236.1,480.7 c -11.5,2.6 -23.14,0.4 -32.99,-6 -9.79,-6.3 -16.56,-16.1 -19,-27.6 -2.48,-11.4 -0.34,-23.1 6,-32.9 6.33,-9.8 16.12,-16.6 27.57,-19.1 l 2236.1,-480.7 c 3.12,-0.7 6.19,-1 9.31,-1 8.33,0 16.51,2.4 23.67,7.1 9.8,6.3 16.57,16.1 19.01,27.5 2.48,11.4 0.34,23.1 -6,33 -6.33,9.8 -16.12,16.6 -27.57,19"
         style="fill:#a1debc;fill-opacity:1;fill-rule:nonzero;stroke:none"
         transform="matrix(0.13333333,0,0,-0.13333333,0,2829.3333)" />
      <path
         id="path57"
         d="m 6888.48,18033.8 -786.8,169.1 c -11.5,2.6 -23.14,0.4 -32.98,-6 -9.79,-6.3 -16.56,-16.1 -19,-27.5 -2.49,-11.5 -0.34,-23.2 5.99,-33 6.34,-9.8 16.13,-16.6 27.58,-19 l 786.79,-169.2 c 3.12,-0.7 6.19,-1 9.31,-1 8.33,0 16.52,2.4 23.68,7.1 9.79,6.3 16.56,16.1 19,27.5 2.48,11.4 0.34,23.1 -5.99,32.9 -6.34,9.9 -16.13,16.7 -27.58,19.1"
         style="fill:#a1debc;fill-opacity:1;fill-rule:nonzero;stroke:none"
         transform="matrix(0.13333333,0,0,-0.13333333,0,2829.3333)" />
      <path
         id="path58"
         d="m 9808.77,16889.8 c -5.36,23.5 -28.94,38.4 -52.33,33 -11.4,-2.5 -21.15,-9.4 -27.38,-19.3 -6.24,-9.9 -8.28,-21.6 -5.7,-33 l 1141.34,-5061.7 c 4.7,-20.3 22.8,-34.1 42.8,-34.1 3.2,0 6.4,0.3 9.6,1.1 23.6,5.3 38.4,28.7 33.1,52.3 l -1141.43,5061.7"
         style="fill:#3dc1f3;fill-opacity:1;fill-rule:nonzero;stroke:none"
         transform="matrix(0.13333333,0,0,-0.13333333,0,2829.3333)" />
      <path
         id="path59"
         d="m 9672.89,16093.3 c -5.07,23.6 -28.46,38.7 -51.99,33.6 -11.45,-2.4 -21.24,-9.2 -27.62,-19 -6.34,-9.9 -8.48,-21.5 -6,-32.9 l 617.52,-2891.8 c 4.4,-20.5 22.6,-34.6 42.8,-34.6 3,0 6.1,0.3 9.2,1 23.6,5 38.7,28.3 33.6,51.9 l -617.51,2891.8"
         style="fill:#3dc1f3;fill-opacity:1;fill-rule:nonzero;stroke:none"
         transform="matrix(0.13333333,0,0,-0.13333333,0,2829.3333)" />
      <path
         id="path60"
         d="m 9430.35,15767.8 c -9.5,6.7 -21,9.3 -32.69,7.3 -23.78,-4.1 -39.81,-26.8 -35.71,-50.6 l 231.33,-1340.4 c 1.94,-11.5 8.33,-21.6 17.88,-28.3 7.5,-5.3 16.22,-8 25.18,-8 2.49,0 5.02,0.2 7.56,0.6 11.5,2 21.58,8.4 28.3,17.9 6.77,9.6 9.36,21.2 7.36,32.7 l -231.33,1340.4 c -1.94,11.5 -8.33,21.6 -17.88,28.4"
         style="fill:#3dc1f3;fill-opacity:1;fill-rule:nonzero;stroke:none"
         transform="matrix(0.13333333,0,0,-0.13333333,0,2829.3333)" />
      <path
         id="path61"
         d="m 9730.71,10832.4 -4540.5,2049.7 c -22.17,9.9 -47.99,0.1 -57.92,-21.9 -9.9,-22 -0.1,-48 21.87,-57.9 l 4540.5,-2049.7 c 5.75,-2.6 11.89,-3.9 18.03,-3.9 5.21,0 10.43,1 15.5,2.9 10.91,4.1 19.58,12.3 24.4,22.9 4.78,10.7 5.17,22.6 1.02,33.5 -4.09,10.9 -12.27,19.6 -22.9,24.4"
         style="fill:#f68587;fill-opacity:1;fill-rule:nonzero;stroke:none"
         transform="matrix(0.13333333,0,0,-0.13333333,0,2829.3333)" />
      <path
         id="path62"
         d="m 6730.77,12501.6 1973.93,-933.7 c 6.04,-2.8 12.38,-4.2 18.66,-4.2 16.42,0 32.16,9.3 39.66,25.1 4.97,10.6 5.56,22.4 1.61,33.5 -3.95,11 -11.94,19.8 -22.46,24.8 l -1973.89,933.6 c -21.82,10.3 -47.94,1 -58.31,-20.8 -10.29,-21.8 -0.98,-48 20.8,-58.3"
         style="fill:#f68587;fill-opacity:1;fill-rule:nonzero;stroke:none"
         transform="matrix(0.13333333,0,0,-0.13333333,0,2829.3333)" />
      <path
         id="path63"
         d="m 7447.8,12584.1 1084.92,-576.5 c 6.52,-3.4 13.54,-5 20.46,-5 15.69,0 30.89,8.4 38.73,23.2 5.51,10.3 6.63,22.1 3.22,33.3 -3.41,11.2 -11.01,20.4 -21.34,25.9 l -1084.92,576.4 c -21.14,11.3 -47.85,3.3 -59.25,-18 -11.3,-21.4 -3.11,-47.9 18.18,-59.3"
         style="fill:#f68587;fill-opacity:1;fill-rule:nonzero;stroke:none"
         transform="matrix(0.13333333,0,0,-0.13333333,0,2829.3333)" />
      <path
         id="path64"
         d="m 3848.68,18191.8 c -0.1,0 -0.15,0 -0.24,0 -11.7,-0.1 -22.66,-4.7 -30.89,-13 -8.24,-8.3 -12.72,-19.4 -12.62,-31 l 20.36,-3520.2 c 0.15,-24 19.79,-43.5 43.75,-43.5 0.1,0 0.2,0 0.3,0 24.11,0.2 43.65,19.9 43.55,44 l -20.41,3520.2 c -0.15,24 -19.78,43.5 -43.8,43.5"
         style="fill:#ffffff;fill-opacity:1;fill-rule:nonzero;stroke:none"
         transform="matrix(0.13333333,0,0,-0.13333333,0,2829.3333)" />
      <path
         id="path65"
         d="m 4211.8,17287.3 c -0.25,0 -0.54,0 -0.83,0 -23.73,0 -43.31,-19.1 -43.75,-43 l -30.79,-1615.6 c -0.2,-11.7 4.14,-22.8 12.22,-31.2 8.09,-8.4 19.01,-13.2 30.75,-13.4 0.24,0 0.53,0 0.82,0 11.36,0 22.13,4.3 30.36,12.2 8.43,8.1 13.15,19 13.4,30.7 l 30.74,1615.6 c 0.24,11.7 -4.09,22.8 -12.18,31.2 -8.09,8.5 -19,13.2 -30.74,13.5"
         style="fill:#ffffff;fill-opacity:1;fill-rule:nonzero;stroke:none"
         transform="matrix(0.13333333,0,0,-0.13333333,0,2829.3333)" />
      <path
         id="path66"
         d="m 4591.87,16823.7 c -11.65,1 -23,-3.1 -31.77,-10.9 -8.77,-7.7 -13.98,-18.4 -14.71,-30 l -39.56,-621.3 c -1.51,-24.1 16.81,-44.9 40.92,-46.4 0.93,-0.1 1.9,-0.1 2.83,-0.1 10.67,0 20.85,3.8 28.94,10.9 8.77,7.8 13.98,18.4 14.72,30.1 l 39.55,621.2 c 1.52,24.1 -16.8,45 -40.92,46.5"
         style="fill:#ffffff;fill-opacity:1;fill-rule:nonzero;stroke:none"
         transform="matrix(0.13333333,0,0,-0.13333333,0,2829.3333)" />
      <path
         id="path67"
         d="m 6951.72,15334.5 486.38,504.2 c 15.94,16.5 16.28,42 0.83,59.4 -0.29,0.5 -1.46,2.1 -1.9,2.5 -17.29,16.8 -45.12,16.3 -61.93,-1.1 l -479.12,-496.7 -367.11,449.9 c -11.45,14.2 -30.16,19.4 -47.6,13.7 -5.55,-1.9 -10.13,-4.3 -13.98,-7.4 -9.06,-7.4 -14.72,-17.9 -15.88,-29.5 -1.18,-11.7 2.24,-23.1 9.64,-32.1 l 365.22,-447.7 -577.74,-369.2 c -9.84,-6.3 -16.66,-16.1 -19.2,-27.5 -2.48,-11.4 -0.39,-23.1 5.9,-33 6.28,-9.9 16.07,-16.7 27.48,-19.2 11.44,-2.5 23.19,-0.4 32.98,5.9 l 586.31,374.7 494.81,-606.5 c 7.36,-9.1 17.83,-14.7 29.48,-15.9 1.51,-0.2 3.02,-0.2 4.48,-0.2 10.03,0 19.73,3.4 27.62,9.8 3.85,3.2 7.02,7 10.04,12.2 9.21,15.9 7.75,35.3 -3.8,49.4 l -492.91,604.3"
         style="fill:#ffffff;fill-opacity:1;fill-rule:nonzero;stroke:none"
         transform="matrix(0.13333333,0,0,-0.13333333,0,2829.3333)" />
    </g>
  </g>
</svg>
